<?xml version="1.0" encoding="UTF-8" standalone="no"?>
<!-- Created with Inkscape (http://www.inkscape.org/) -->

<svg
   xmlns:dc="http://purl.org/dc/elements/1.1/"
   xmlns:cc="http://creativecommons.org/ns#"
   xmlns:rdf="http://www.w3.org/1999/02/22-rdf-syntax-ns#"
   xmlns:svg="http://www.w3.org/2000/svg"
   xmlns="http://www.w3.org/2000/svg"
   xmlns:sodipodi="http://sodipodi.sourceforge.net/DTD/sodipodi-0.dtd"
   xmlns:inkscape="http://www.inkscape.org/namespaces/inkscape"
   width="535.16766"
   height="312.93408"
   id="svg2"
   version="1.1"
   inkscape:version="0.48.4 r9939"
   sodipodi:docname="New document 1">
  <defs
     id="defs4">
    <inkscape:path-effect
       effect="spiro"
       id="path-effect3789"
       is_visible="true" />
    <inkscape:path-effect
       effect="spiro"
       id="path-effect3785"
       is_visible="true" />
    <inkscape:path-effect
       effect="skeletal"
       id="path-effect3773"
       is_visible="true"
       pattern="M 0,0 0,10 10,5 z"
       copytype="single_stretched"
       prop_scale="1"
       scale_y_rel="false"
       spacing="0"
       normal_offset="0"
       tang_offset="0"
       prop_units="false"
       vertical_pattern="false"
       fuse_tolerance="0" />
    <inkscape:path-effect
       effect="spiro"
       id="path-effect3771"
       is_visible="true" />
  </defs>
  <sodipodi:namedview
     id="base"
     pagecolor="#ffffff"
     bordercolor="#666666"
     borderopacity="1.0"
     inkscape:pageopacity="0.0"
     inkscape:pageshadow="2"
     inkscape:zoom="0.98994949"
     inkscape:cx="142.18235"
     inkscape:cy="172.53811"
     inkscape:document-units="px"
     inkscape:current-layer="layer1"
     showgrid="false"
     fit-margin-top="10"
     fit-margin-left="10"
     fit-margin-right="10"
     fit-margin-bottom="10"
     inkscape:window-width="1366"
     inkscape:window-height="709"
     inkscape:window-x="0"
     inkscape:window-y="27"
     inkscape:window-maximized="1" />
  <metadata
     id="metadata7">
    <rdf:RDF>
      <cc:Work
         rdf:about="">
        <dc:format>image/svg+xml</dc:format>
        <dc:type
           rdf:resource="http://purl.org/dc/dcmitype/StillImage" />
        <dc:title></dc:title>
      </cc:Work>
    </rdf:RDF>
  </metadata>
  <g
     inkscape:label="Layer 1"
     inkscape:groupmode="layer"
     id="layer1"
     transform="translate(-90.51525,-288.28838)">
    <path
       style="fill:none;stroke:#000000;stroke-width:1px;stroke-linecap:butt;stroke-linejoin:miter;stroke-opacity:1"
       d="m 102.02541,298.78838 0,291.93409 513.15749,0"
       id="path2991"
       inkscape:connector-curvature="0" />
    <path
       style="fill:#ff0000;stroke:#0000ff;stroke-width:1px;stroke-linecap:butt;stroke-linejoin:miter;stroke-opacity:1"
       d="m 101.01525,351.31632 492.95445,0"
       id="path2993"
       inkscape:connector-curvature="0" />
    <path
       style="fill:none;stroke:#ff0000;stroke-width:1px;stroke-linecap:butt;stroke-linejoin:miter;stroke-opacity:1"
       d="m 101.01525,514.96103 504.06612,0"
       id="path2995"
       inkscape:connector-curvature="0" />
    <path
       style="fill:none;stroke:#000000;stroke-width:1px;stroke-linecap:butt;stroke-linejoin:miter;stroke-opacity:1"
       d="m 141.42136,331.11327 11.11167,0 2.02031,0 c 0.16855,0 0.33707,-0.004 0.50548,-0.0115 0.1684,-0.007 0.33816,-0.0147 0.50467,0.0115 0.37562,0.0591 0.69925,0.28794 1.0085,0.50915 0.30926,0.22122 0.63532,0.4478 1.01181,0.501 0.33407,0.0472 0.67617,-0.0478 1.01015,0 0.25275,0.0362 0.49277,0.15628 0.67332,0.33683 0.18055,0.18055 0.30062,0.42057 0.33683,0.67332 1.04667,0.6164 2.05891,1.29123 3.03046,2.02031 0.97336,0.73044 1.91948,1.5236 3.03046,2.0203 0.69082,0.30885 1.45353,0.50876 2.0203,1.01015 0.45766,0.40486 0.74035,0.9666 1.01161,1.51412 0.27125,0.54752 0.55267,1.10965 1.0087,1.51634 0.56493,0.50381 1.32612,0.70836 2.0203,1.01015 1.78538,0.77618 3.21348,2.27826 4.04061,4.04061 0.32059,0.68308 0.56146,1.41364 1.01016,2.02031 0.56731,0.76702 1.42326,1.27618 2.0203,2.0203 0.57054,0.71109 0.87329,1.59635 1.12457,2.47272 0.25128,0.87637 0.46578,1.77412 0.89574,2.57805 0.5735,1.07233 1.50522,1.92887 2.0203,3.03045 0.45163,0.96588 0.55642,2.06557 1.01015,3.03046 0.32477,0.69065 0.81617,1.28668 1.23612,1.92396 0.41994,0.63727 0.77931,1.35346 0.78419,2.11665 0.002,0.33755 -0.0652,0.67896 0,1.01015 0.0488,0.24779 0.17275,0.48026 0.35132,0.65883 0.17858,0.17858 0.41104,0.30254 0.65883,0.35133 0.34651,0.66848 0.68328,1.34201 1.01015,2.0203 0.46492,0.96474 0.91657,1.96364 1.01016,3.03046 0.0589,0.67119 -0.0266,1.34705 0,2.0203 0.0549,1.3922 0.5828,2.71448 1.01015,4.04061 0.35188,1.09195 0.64015,2.20711 1.08344,3.26525 0.4433,1.05814 1.05703,2.07173 1.94702,2.79567 0.18659,0.15178 0.38426,0.29 0.56449,0.44927 0.18024,0.15927 0.34464,0.3426 0.44566,0.56088 0.14595,0.31536 0.14595,0.6948 0,1.01016 0.0695,0.76757 0.43777,1.50419 1.01015,2.0203 0.1783,0.16078 0.37471,0.30029 0.55606,0.45763 0.18134,0.15733 0.35003,0.33616 0.45409,0.55252 0.14793,0.30758 0.1531,0.66443 0.11627,1.00374 -0.0368,0.33931 -0.11263,0.67529 -0.11627,1.01657 -0.005,0.50017 0.14611,0.99324 0.37759,1.43666 0.23147,0.44341 0.54114,0.84127 0.86817,1.21975 0.65406,0.75697 1.40008,1.47085 1.7847,2.39435 0.33261,0.79863 0.36485,1.68466 0.42156,2.54792 0.0567,0.86327 0.15207,1.75592 0.58859,2.50284 0.31113,0.53237 0.77524,0.95464 1.1844,1.41596 0.20457,0.23066 0.39736,0.47382 0.54839,0.74261 0.15103,0.26878 0.2597,0.56484 0.28752,0.87189 0.0304,0.33567 -0.0358,0.67501 0,1.01015 0.0404,0.37767 0.20843,0.73019 0.40534,1.05498 0.19691,0.3248 0.42519,0.63066 0.60481,0.96533 0.17867,0.33291 0.30688,0.68999 0.45294,1.03844 0.14605,0.34846 0.3131,0.69348 0.55721,0.98186 0.30816,0.36404 0.72852,0.62523 1.01016,1.01016 0.20799,0.28426 0.33022,0.62389 0.39985,0.96917 0.0696,0.34528 0.089,0.69845 0.10795,1.05017 0.0189,0.35172 0.0378,0.70488 0.1065,1.05035 0.0687,0.34547 0.18944,0.68551 0.39585,0.97092 0.3595,0.49709 0.9373,0.78069 1.49552,1.0351 0.55822,0.25442 1.14165,0.51439 1.53494,0.9852 0.34433,0.4122 0.50637,0.94487 0.61949,1.46992 0.11313,0.52504 0.18725,1.06346 0.39066,1.56054 0.20759,0.5073 0.54469,0.95498 0.94026,1.3344 0.39557,0.37943 0.84933,0.69349 1.31825,0.97732 0.93784,0.56764 1.95114,1.02582 2.79225,1.72889 0.731,0.61103 1.34662,1.3466 2.02031,2.0203 l 1.01015,1.01016 c 0.17169,0.17169 0.32453,0.36091 0.46455,0.55928 0.07,0.0992 0.14134,0.19853 0.22937,0.28213 0.088,0.0836 0.19607,0.15143 0.31623,0.16874 0.0886,0.0128 0.17903,-0.003 0.26519,-0.0268 0.0862,-0.0242 0.16963,-0.0574 0.25586,-0.0814 0.0862,-0.024 0.17681,-0.0388 0.26529,-0.0253 0.0442,0.007 0.0876,0.0207 0.12641,0.0429 0.0388,0.0223 0.073,0.053 0.0974,0.0906 0.0245,0.0378 0.0387,0.0818 0.044,0.12647 0.005,0.0447 0.002,0.0902 -0.007,0.13438 -0.0173,0.0884 -0.0554,0.17106 -0.0889,0.25467 -0.0335,0.0836 -0.063,0.1711 -0.0618,0.26115 5.9e-4,0.045 0.009,0.0903 0.0278,0.13122 0.0187,0.041 0.0479,0.0775 0.0855,0.10226 0.0506,0.0333 0.11501,0.0436 0.1743,0.0311 0.0593,-0.0124 0.11316,-0.0467 0.15236,-0.0929 0.0392,-0.0462 0.064,-0.1038 0.0743,-0.16349 0.0103,-0.0597 0.006,-0.12141 -0.008,-0.18033 -0.0281,-0.11785 -0.0955,-0.22251 -0.16991,-0.31811 -0.0744,-0.0956 -0.15722,-0.185 -0.22342,-0.28647 -0.0982,-0.1505 -0.15759,-0.32559 -0.17463,-0.50447 -0.017,-0.17888 0.008,-0.36127 0.0695,-0.53012 0.12295,-0.33769 0.39167,-0.61449 0.71523,-0.7709 0.32356,-0.15641 0.69782,-0.1961 1.0523,-0.13698 0.35449,0.0591 0.68942,0.2139 0.98087,0.42416 0.5829,0.42053 0.98277,1.04548 1.3235,1.67834 0.34073,0.63287 0.64034,1.29479 1.08401,1.86027 0.58829,0.7498 1.3464,1.34641 2.0203,2.02031 l 3.03046,3.03046 c 1.03543,1.03543 2.07403,2.07403 3.22943,2.97362 1.15539,0.8996 2.43757,1.66145 3.84164,2.07714 1.02564,0.30365 2.13133,0.43075 3.03046,1.01015 0.51908,0.33449 0.93698,0.80089 1.40206,1.20712 0.23254,0.20312 0.47898,0.39264 0.75061,0.53944 0.27162,0.1468 0.56992,0.25024 0.87778,0.27375 0.33947,0.0259 0.67771,-0.0452 1.01559,-0.087 0.33788,-0.0418 0.69389,-0.0519 1.00472,0.087 0.22277,0.0996 0.4076,0.27009 0.55959,0.46098 0.15199,0.19088 0.2743,0.40322 0.40181,0.61126 0.12751,0.20804 0.26209,0.41424 0.43416,0.58724 0.17207,0.17301 0.38559,0.31239 0.62474,0.36082 0.16549,0.0335 0.33644,0.0226 0.50472,0.009 0.16828,-0.0139 0.33802,-0.0307 0.50544,-0.009 0.189,0.0248 0.36888,0.0986 0.53448,0.19302 0.16561,0.0944 0.31838,0.20943 0.47125,0.32329 0.15288,0.11387 0.30698,0.22733 0.47456,0.31818 0.16758,0.0908 0.35012,0.15894 0.54001,0.17567 0.16869,0.0149 0.3379,-0.011 0.50644,-0.0276 0.16853,-0.0166 0.34224,-0.0235 0.50371,0.0276 0.18708,0.0591 0.34448,0.19346 0.4567,0.3544 0.11223,0.16094 0.18247,0.34764 0.23335,0.53713 0.10177,0.37898 0.13314,0.78377 0.32011,1.12877 0.12911,0.23825 0.32827,0.43566 0.55987,0.57636 0.23159,0.1407 0.49481,0.22583 0.76318,0.2633 0.53676,0.075 1.0831,-0.0381 1.59882,-0.20471 0.51573,-0.16659 1.01356,-0.38694 1.5345,-0.53641 0.52094,-0.14948 1.07783,-0.22622 1.60454,-0.0985 0.36704,0.089 0.70338,0.273 1.02742,0.46699 0.32405,0.19398 0.64298,0.40102 0.99289,0.54316 0.47128,0.19144 0.98497,0.25946 1.4936,0.26672 0.50863,0.007 1.01616,-0.0434 1.5221,-0.0961 1.01189,-0.10542 2.02784,-0.1706 3.04521,-0.1706 l 12.12183,0 6.06092,0 2.0203,0 c 0.16863,0 0.3372,0.005 0.50563,0.0134 0.16842,0.008 0.33869,0.0171 0.50453,-0.0134 0.23955,-0.0441 0.45805,-0.17185 0.6391,-0.33479 0.18105,-0.16294 0.32757,-0.36041 0.4625,-0.5632 0.26988,-0.40557 0.51269,-0.85311 0.9187,-1.12231 0.28686,-0.1902 0.63458,-0.27394 0.97855,-0.28608 0.34397,-0.0121 0.68672,0.0438 1.02369,0.11386 0.33697,0.0701 0.67145,0.15467 1.01248,0.20119 0.34102,0.0465 0.69189,0.0541 1.02589,-0.029 0.36617,-0.0911 0.69787,-0.2834 1.02476,-0.47189 0.32688,-0.18849 0.65805,-0.36951 0.99555,-0.53826 l 2.0203,-1.01016 c 0.8792,-0.4396 1.73921,-0.91899 2.55377,-1.46918 0.81457,-0.5502 1.60146,-1.15597 2.49699,-1.56127 0.68947,-0.31204 1.45583,-0.50607 2.02031,-1.01016 0.36133,-0.32267 0.61083,-0.74837 0.90137,-1.13601 0.14527,-0.19382 0.30271,-0.38014 0.48732,-0.53695 0.18461,-0.1568 0.39788,-0.28379 0.63161,-0.34734 0.25024,-0.068 0.51557,-0.0615 0.77201,-0.0229 0.25643,0.0386 0.50695,0.10843 0.75977,0.16618 0.25281,0.0577 0.5109,0.10369 0.77001,0.0933 0.25912,-0.0104 0.52141,-0.0807 0.72867,-0.23661 0.15257,-0.11472 0.26992,-0.27141 0.3586,-0.44045 0.0887,-0.16903 0.15011,-0.3509 0.20556,-0.53356 0.11089,-0.36531 0.20558,-0.74973 0.44599,-1.0463 0.23983,-0.29584 0.59796,-0.46934 0.95605,-0.59899 0.3581,-0.12964 0.73133,-0.22623 1.06426,-0.41116 0.41831,-0.23235 0.75035,-0.59158 1.05668,-0.95918 0.30632,-0.36761 0.59766,-0.75284 0.96362,-1.06113 0.57907,-0.48781 1.3081,-0.75338 2.02054,-1.00975 0.71243,-0.25636 1.4414,-0.52226 2.02007,-1.01055 0.649,-0.54764 1.05074,-1.32464 1.45867,-2.06942 0.40794,-0.74478 0.86257,-1.50416 1.57179,-1.97119 0.6302,-0.41499 1.41198,-0.56371 2.02031,-1.01015 0.63035,-0.4626 1.01829,-1.23847 1.01015,-2.02031 l 2.0203,-2.0203 c 1.88504,-0.60773 3.62746,-1.65318 5.05077,-3.03046 1.02776,-0.99452 1.89469,-2.16133 3.03046,-3.03046 0.96494,-0.73841 2.0982,-1.24102 3.03045,-2.0203 0.7311,-0.61113 1.31843,-1.37583 2.02031,-2.02031 1.12372,-1.03182 2.54092,-1.74041 4.04061,-2.0203 2.64541,-1.6472 5.03865,-3.69856 7.07107,-6.06092 1.71615,-1.99476 3.17892,-4.21146 5.05076,-6.06091 1.01731,-1.00514 2.15399,-1.9004 3.03046,-3.03046 0.74759,-0.96389 1.28389,-2.07057 1.87022,-3.14024 0.58633,-1.06967 1.24302,-2.12824 2.17039,-2.92068 0.74733,-0.6386 1.64199,-1.07969 2.42891,-1.66881 0.39346,-0.29457 0.76185,-0.62862 1.0524,-1.02505 0.29055,-0.39643 0.50135,-0.85867 0.5593,-1.34675 0.0699,-0.5888 -0.0828,-1.18578 -0.0256,-1.77595 0.0286,-0.29509 0.11295,-0.59106 0.28851,-0.82995 0.0878,-0.11945 0.1978,-0.2233 0.32559,-0.29842 0.12779,-0.0751 0.27353,-0.12101 0.42168,-0.12613 0.17176,-0.006 0.34018,0.042 0.51018,0.0672 0.085,0.0126 0.17136,0.0196 0.25689,0.0113 0.0855,-0.008 0.17051,-0.0325 0.24308,-0.0785 0.0758,-0.0481 0.13606,-0.11897 0.17647,-0.19913 0.0404,-0.0802 0.0614,-0.16937 0.0669,-0.25897 0.011,-0.17921 -0.0387,-0.35658 -0.10007,-0.52533 -0.0613,-0.16874 -0.13499,-0.33392 -0.17497,-0.50896 -0.04,-0.17504 -0.0438,-0.36501 0.0316,-0.52792 0.0415,-0.0895 0.10557,-0.16762 0.18148,-0.23059 0.0759,-0.063 0.16344,-0.11109 0.25518,-0.14728 0.18348,-0.0724 0.38167,-0.0972 0.57736,-0.12199 0.19568,-0.0248 0.39386,-0.0508 0.5765,-0.12526 0.0913,-0.0372 0.17819,-0.0866 0.25301,-0.1509 0.0748,-0.0643 0.13738,-0.14372 0.17678,-0.23413 0.068,-0.15599 0.0636,-0.33351 0.0435,-0.50247 -0.0201,-0.16896 -0.0549,-0.33792 -0.0435,-0.50769 0.0107,-0.15943 0.0624,-0.31502 0.14231,-0.45338 0.0799,-0.13837 0.18754,-0.25981 0.31014,-0.36228 0.24522,-0.20492 0.54584,-0.33224 0.84999,-0.43031 0.30415,-0.0981 0.6167,-0.16992 0.91676,-0.27989 0.30005,-0.10997 0.5919,-0.26204 0.81125,-0.49444 0.26014,-0.27561 0.39879,-0.6414 0.52409,-0.99908 0.1253,-0.35769 0.24816,-0.72621 0.48607,-1.02123 0.23992,-0.2975 0.58073,-0.49823 0.93433,-0.64327 0.35359,-0.14505 0.72535,-0.24032 1.08597,-0.36688 1.85883,-0.65233 3.38828,-2.18178 4.04061,-4.04061 1.80431,-0.78784 3.50652,-1.80917 5.05076,-3.03046 1.87047,-1.47929 3.49838,-3.24049 5.05077,-5.05076 0.62164,-0.72491 1.24165,-1.46745 2.0203,-2.0203 0.80792,-0.57363 1.75117,-0.9181 2.65367,-1.32711 0.90249,-0.40901 1.80153,-0.91146 2.3971,-1.70335 0.45371,-0.60326 0.69966,-1.33229 1.01015,-2.02031 0.50163,-1.11157 1.18717,-2.13988 2.0203,-3.03045 1.08631,0.0295 2.17911,-0.33479 3.03046,-1.01016 0.74659,-0.59227 1.34645,-1.34644 2.02031,-2.0203 l 5.05076,-5.05076 c 0.33736,-0.33736 0.66337,-0.68583 0.98202,-1.04092 0.31864,-0.3551 0.64065,-0.71573 1.03828,-0.97939 0.629,-0.41707 1.41559,-0.55859 2.02031,-1.01015 0.38206,-0.28529 0.66842,-0.67762 1.01015,-1.01015 0.87196,-0.8485 2.06739,-1.27683 3.03046,-2.02031 1.1326,-0.87435 1.90192,-2.15087 3.03046,-3.03046 0.59776,-0.4659 1.28892,-0.81148 2.0203,-1.01015 0.52623,-0.8018 1.21851,-1.49408 2.02031,-2.0203 1.2603,-0.82713 2.75624,-1.23108 4.04061,-2.02031 1.03606,-0.63664 1.92335,-1.51725 3.03045,-2.0203 0.97049,-0.44098 2.06054,-0.56792 3.03046,-1.01016 0.98513,-0.44918 1.79688,-1.20003 2.57128,-1.95669 0.77441,-0.75666 1.54248,-1.54146 2.47948,-2.08392 0.65188,-0.37739 1.37098,-0.62839 2.02031,-1.01015 0.32732,-0.19244 0.63491,-0.41698 0.96253,-0.60891 0.32762,-0.19193 0.68121,-0.35265 1.05778,-0.40124 0.33566,-0.0433 0.67542,0.004 1.01211,0.0383 0.33669,0.0344 0.68294,0.0553 1.00819,-0.0383 0.23885,-0.0687 0.45972,-0.19895 0.63547,-0.37469 0.17574,-0.17574 0.30597,-0.39662 0.37468,-0.63547 0.66965,0.0874 1.35066,0.0874 2.02031,0 1.81057,-0.23633 3.47589,-1.09629 5.05076,-2.0203 0.65086,-0.38187 1.30144,-0.78066 2.02031,-1.01015 0.82351,-0.2629 1.69984,-0.29226 2.56104,-0.36719 0.8612,-0.0749 1.74384,-0.20601 2.48972,-0.64297 0.73997,-0.4335 1.28084,-1.12885 1.87433,-1.74793 0.29674,-0.30954 0.6124,-0.60468 0.97226,-0.83786 0.35986,-0.23317 0.76723,-0.40321 1.19402,-0.44466 0.51165,-0.0497 1.02041,0.0854 1.5283,0.16479 0.25395,0.0397 0.51157,0.0656 0.76796,0.0474 0.25638,-0.0182 0.51259,-0.082 0.7342,-0.21223 0.20994,-0.12335 0.38255,-0.30217 0.52994,-0.49599 0.14739,-0.19383 0.27174,-0.4039 0.40446,-0.60805 0.13272,-0.20415 0.27535,-0.40425 0.45312,-0.57065 0.17778,-0.16639 0.39388,-0.29853 0.63278,-0.34562 0.33122,-0.0653 0.67449,0.0361 1.01015,0 0.37764,-0.0406 0.71376,-0.25025 1.02637,-0.46597 0.3126,-0.21572 0.62658,-0.44771 0.99394,-0.54418 0.3267,-0.0858 0.671,-0.0612 1.00797,-0.0378 0.33697,0.0234 0.67455,0.0378 1.01233,0.0378 l 6.06092,0 c 0.3375,0 0.67484,0.0124 1.01175,0.0324 0.3369,0.0201 0.67919,0.0412 1.00855,-0.0324 0.36904,-0.0825 0.69948,-0.28293 1.01849,-0.486 0.319,-0.20308 0.63985,-0.41468 1.00182,-0.52415 0.48545,-0.14682 1.00539,-0.10506 1.51096,-0.0649 0.50558,0.0401 1.01233,0.0649 1.5195,0.0649 l 5.05076,0"
       id="path3783"
       inkscape:path-effect="#path-effect3785"
       inkscape:original-d="m 141.42136,331.11327 c 3.70389,0 7.40778,0 11.11167,0 0.67344,0 1.34687,0 2.02031,0 0.33672,0 0.69071,-0.10648 1.01015,0 0.71429,0.23809 1.30602,0.77205 2.02031,1.01015 0.31944,0.10648 0.70898,-0.15059 1.01015,0 0.42592,0.21296 0.61394,0.74601 1.01015,1.01015 4.88521,2.4426 -0.0546,-0.29352 3.03046,2.02031 0.97124,0.72843 1.98942,1.39568 3.03046,2.0203 0.64562,0.38738 1.48791,0.47776 2.0203,1.01015 0.85847,0.85847 1.16184,2.172 2.02031,3.03046 0.53239,0.5324 1.39383,0.59251 2.0203,1.01015 0.49331,0.32888 3.71174,3.5473 4.04061,4.04061 0.41765,0.62647 0.59251,1.39384 1.01016,2.02031 0.52828,0.79243 1.49201,1.22787 2.0203,2.0203 1.76529,2.64794 0.37757,1.76529 2.02031,5.05077 0.54294,1.08588 1.47736,1.94457 2.0203,3.03045 0.47619,0.95238 0.6147,2.04182 1.01015,3.03046 0.55926,1.39814 1.54412,2.61204 2.02031,4.04061 0.10648,0.31944 -0.15059,0.70899 0,1.01015 0.21296,0.42592 0.67343,0.67344 1.01015,1.01016 0.33672,0.67343 0.73052,1.32123 1.01015,2.0203 0.39546,0.98864 0.75191,1.99746 1.01016,3.03046 0.16333,0.65333 -0.13208,1.35995 0,2.0203 0.27227,1.36137 0.57112,2.72354 1.01015,4.04061 0.29727,0.89182 2.49756,5.26158 3.03046,6.06092 0.26414,0.39621 0.79719,0.58423 1.01015,1.01015 0.15058,0.30117 0,0.67344 0,1.01016 0.33672,0.67343 0.5925,1.39383 1.01015,2.0203 0.26414,0.39621 0.85957,0.5584 1.01015,1.01015 0.21296,0.63888 -0.2501,1.39504 0,2.02031 0.72421,1.81051 2.54019,3.08968 3.03046,5.05076 1.15577,4.62307 -2.04039,-1.05032 1.01015,5.05076 2.31154,4.62308 -0.41868,-4.28649 2.02031,3.03046 0.10648,0.31944 -0.10648,0.69072 0,1.01015 0.23809,0.71429 0.67343,1.34687 1.01015,2.02031 0.33672,0.67343 0.59251,1.39383 1.01015,2.0203 0.26415,0.39622 0.85957,0.5584 1.01016,1.01016 0.80017,2.40052 -1.19579,1.83466 1.01015,4.04061 1.23035,1.23035 2.25689,0.47317 3.03046,2.0203 0.47619,0.95238 0.46232,2.11741 1.01015,3.03046 1.1257,1.87617 3.46261,2.77008 5.05076,4.04061 0.74369,0.59495 1.34687,1.34687 2.02031,2.0203 0.33671,0.33672 0.67343,0.67344 1.01015,1.01016 0.33672,0.33671 0.58423,0.79719 1.01015,1.01015 0.30117,0.15058 0.77206,-0.2381 1.01015,0 0.2381,0.23809 0.33672,1.01015 0,1.01015 -0.33671,0 -0.33017,-1.07619 0,-1.01015 1.77807,0.35561 3.4764,1.12067 5.05077,2.0203 0.8269,0.47252 1.34687,1.34687 2.0203,2.02031 1.01016,1.01015 2.02031,2.0203 3.03046,3.03046 2.12734,2.12734 4.22696,3.91312 7.07107,5.05076 0.98863,0.39545 2.07807,0.53396 3.03046,1.01015 3.08052,1.54026 -1.84752,0.80082 3.03045,2.02031 0.65333,0.16333 1.41797,-0.30117 2.02031,0 0.85183,0.42592 1.22787,1.49202 2.0203,2.0203 0.28017,0.18678 0.69072,-0.10648 1.01016,0 0.71428,0.2381 1.30602,0.77206 2.0203,1.01016 0.31944,0.10647 0.77206,-0.2381 1.01015,0 0.5324,0.53239 0.38369,1.60265 1.01016,2.0203 0.42516,0.28345 5.19036,-0.21764 6.06091,0 0.73044,0.18261 1.30602,0.77206 2.02031,1.01015 0.63644,0.21215 5.28975,0 6.06091,0 4.04061,0 8.08122,0 12.12183,0 2.02031,0 4.04061,0 6.06092,0 0.67343,0 1.34687,0 2.0203,0 0.33672,0 0.70899,0.15059 1.01016,0 0.85183,-0.42591 1.11679,-1.71913 2.0203,-2.0203 1.27775,-0.42592 2.73395,0.32666 4.04061,0 0.73044,-0.18261 1.34687,-0.67344 2.02031,-1.01015 0.67343,-0.33672 1.34687,-0.67344 2.0203,-1.01016 4.61814,-2.30907 -1.04412,0.62647 5.05076,-3.03045 0.64563,-0.38738 1.41797,-0.5584 2.02031,-1.01016 0.7619,-0.57143 1.13604,-1.6666 2.0203,-2.0203 0.93791,-0.37516 2.12695,0.45175 3.03046,0 0.67344,-0.33672 0.47776,-1.48791 1.01015,-2.02031 0.5324,-0.53239 1.41797,-0.5584 2.02031,-1.01015 0.7619,-0.57143 1.2584,-1.44888 2.0203,-2.02031 1.20468,-0.9035 2.97582,-0.95551 4.04061,-2.0203 0.94707,-0.94706 1.68641,-3.14458 3.03046,-4.04061 0.62647,-0.41765 1.48791,-0.47776 2.02031,-1.01015 0.53239,-0.5324 0.67343,-1.34687 1.01015,-2.02031 0.67343,-0.67343 1.27662,-1.42536 2.0203,-2.0203 1.12048,-1.91137 3.51762,-1.80394 5.05077,-3.03046 1.11552,-0.89242 1.933,-2.11591 3.03046,-3.03046 0.93266,-0.77722 2.08244,-1.26189 3.03045,-2.0203 0.74369,-0.59495 1.22788,-1.49202 2.02031,-2.02031 1.25294,-0.83529 2.89728,-1.04031 4.04061,-2.0203 5.48425,-7.31233 0.13799,-1.43887 7.07107,-6.06092 1.74943,-1.16629 4.03219,-4.87258 5.05076,-6.06091 0.9297,-1.08466 2.11591,-1.933 3.03046,-3.03046 1.55443,-1.86532 2.52378,-4.16489 4.04061,-6.06092 1.18989,-1.48737 3.06061,-2.40729 4.04061,-4.04061 0.54783,-0.91305 0.41951,-2.14449 1.01015,-3.03045 0.18678,-0.28017 0.85957,0.30116 1.01015,0 0.30117,-0.60234 -0.21296,-1.38143 0,-2.02031 1.051,-3.15301 0.67344,0.33672 2.02031,-1.01015 0.23809,-0.2381 -0.2381,-0.77206 0,-1.01016 0.85846,-0.85846 2.17199,-1.16184 3.03045,-2.0203 0.5324,-0.5324 0.47776,-1.48791 1.01016,-2.02031 0.53239,-0.53239 1.41796,-0.55839 2.0203,-1.01015 1.52381,-1.14286 2.55324,-2.85071 4.04061,-4.04061 1.18104,-1.83318 3.48006,-1.85243 5.05076,-3.03046 1.25747,-0.94309 3.8982,-3.89819 5.05077,-5.05076 0.67343,-0.67343 1.2584,-1.44887 2.0203,-2.0203 3.18847,-2.39135 1.26117,0.75914 5.05077,-3.03046 0.53239,-0.5324 0.62277,-1.37468 1.01015,-2.02031 0.62462,-1.04104 1.16184,-2.17199 2.0203,-3.03045 0.36019,-2.48146 2.1445,-0.41951 3.03046,-1.01016 0.79243,-0.52828 1.34687,-1.34687 2.02031,-2.0203 1.68358,-1.68359 3.36717,-3.36718 5.05076,-5.05076 0.67343,-0.67344 1.2584,-1.44888 2.0203,-2.02031 0.60234,-0.45175 1.39384,-0.59251 2.02031,-1.01015 0.39621,-0.26414 0.6292,-0.72444 1.01015,-1.01015 0.97124,-0.72844 2.08244,-1.2619 3.03046,-2.02031 1.11553,-0.89242 1.84181,-2.23803 3.03046,-3.03046 0.62647,-0.41764 1.34687,-0.67343 2.0203,-1.01015 0.67344,-0.67343 1.2584,-1.44888 2.02031,-2.0203 1.20467,-0.90351 2.74935,-1.24556 4.04061,-2.02031 1.04104,-0.62462 1.94457,-1.47736 3.03045,-2.0203 0.95239,-0.4762 2.07808,-0.53397 3.03046,-1.01016 4.94402,-2.47201 1.2925,-1.22191 5.05076,-4.04061 0.60234,-0.45175 1.34687,-0.67343 2.02031,-1.01015 0.67343,-0.33672 1.28986,-0.82754 2.02031,-1.01015 0.65332,-0.16333 1.38142,0.21296 2.0203,0 0.45175,-0.15059 0.67344,-0.67344 1.01015,-1.01016 0.67344,0 1.35995,0.13208 2.02031,0 2.08041,-0.41608 3.25493,-1.12239 5.05076,-2.0203 0.67344,-0.33672 1.28986,-0.82754 2.02031,-1.01015 3.52059,-0.88015 0.69284,1.60459 5.05076,-1.01016 2.38065,-1.42839 1.30449,-2.48323 4.04061,-3.03045 0.99053,-0.19811 2.09255,0.37516 3.03046,0 0.88426,-0.35371 1.22787,-1.49202 2.0203,-2.02031 0.28017,-0.18678 0.69072,0.10648 1.01015,0 0.71429,-0.23809 1.30602,-0.77206 2.02031,-1.01015 0.63888,-0.21296 1.34687,0 2.0203,0 2.02031,0 4.04061,0 6.06092,0 0.67343,0 1.36698,0.16333 2.0203,0 0.73045,-0.18261 1.28201,-0.86249 2.02031,-1.01015 0.99054,-0.19811 2.0203,0 3.03046,0 1.68358,0 3.36717,0 5.05076,0"
       inkscape:connector-curvature="0" />
    <path
       style="fill:none;stroke:#000000;stroke-width:1px;stroke-linecap:butt;stroke-linejoin:miter;stroke-opacity:1"
       d="m 166.67517,476.57523 c 2.06207,-0.20181 4.17576,0.15047 6.06092,1.01015 0.6851,0.31242 1.34682,0.67342 2.0203,1.01016 l 2.02031,1.01015 c 0.67407,0.33703 1.30567,0.77084 2.0203,1.01015 0.64287,0.21528 1.33837,0.20813 2.01373,0.1489 0.67537,-0.0592 1.3492,-0.16831 2.02688,-0.1489 1.55378,0.0445 3.07275,0.80398 4.04061,2.02031 1.58501,0.69395 3.32077,1.0411 5.05076,1.01015 1.35059,-0.0242 2.71784,-0.27379 4.04061,0 0.89053,0.18433 1.71449,0.59772 2.52625,1.00768 0.81175,0.40997 1.63471,0.82487 2.52452,1.01262 0.99313,0.20955 2.02334,0.12625 3.03045,0 0.67313,-0.0844 1.36794,-0.18613 2.02031,0 0.72577,0.20707 1.31289,0.7471 2.0203,1.01016 0.47927,0.17822 0.99971,0.22317 1.51049,0.19942 0.51079,-0.0237 1.01579,-0.11415 1.51997,-0.19942 0.67111,-0.11351 1.37487,-0.21604 2.02031,0 0.35853,0.12001 0.67763,0.33206 0.99776,0.53322 0.32012,0.20116 0.65309,0.39659 1.02254,0.47693 0.32975,0.0717 0.67175,0.0511 1.00864,0.0315 0.3369,-0.0195 0.67421,-0.0315 1.01167,-0.0315 l 2.0203,0 c 0.50574,0 1.01136,-0.014 1.51659,-0.0367 0.50524,-0.0227 1.01508,-0.0469 1.51387,0.0367 1.0527,0.17641 1.97776,0.83374 3.03046,1.01015 0.49879,0.0836 1.00863,0.0594 1.51387,0.0367 0.50523,-0.0227 1.01085,-0.0367 1.51659,-0.0367 l 2.0203,0 9.09137,0 c 0.50717,0 1.01392,-0.0248 1.5195,-0.0649 0.50557,-0.0401 1.02551,-0.0819 1.51096,0.0649 0.36197,0.10947 0.68282,0.32107 1.00182,0.52415 0.31901,0.20307 0.64945,0.40347 1.01849,0.486 0.32936,0.0737 0.67165,0.0525 1.00855,0.0324 0.33691,-0.0201 0.67425,-0.0324 1.01175,-0.0324 l 5.05076,0 c 0.50717,0 1.01392,-0.0248 1.5195,-0.0649 0.50558,-0.0401 1.02551,-0.0819 1.51096,0.0649 0.36197,0.10947 0.68282,0.32107 1.00182,0.52415 0.31901,0.20308 0.64944,0.40348 1.01849,0.48601 0.32936,0.0737 0.67165,0.0525 1.00855,0.0324 0.33691,-0.0201 0.67425,-0.0324 1.01175,-0.0324 l 3.03046,0 5.05076,0 c 0.34049,0 0.68024,-0.0273 1.01787,-0.0712 0.16882,-0.022 0.33847,-0.0431 0.50869,-0.04 0.17021,0.003 0.34299,0.0321 0.49375,0.1112 0.21278,0.11162 0.36261,0.31158 0.50507,0.50508 0.14247,0.19349 0.2923,0.39345 0.50508,0.50507 0.15076,0.0791 0.32353,0.10807 0.49375,0.1112 0.17021,0.003 0.33986,-0.018 0.50868,-0.04 0.33764,-0.044 0.67738,-0.0712 1.01787,-0.0712 l 4.04061,0 17.1726,0 9.09137,0 3.03046,0 c 0.26878,0 0.53857,0.007 0.80353,0.0523 0.26497,0.0452 0.52219,0.12617 0.77936,0.20433 0.25716,0.0782 0.52192,0.15291 0.79022,0.13687 0.13415,-0.008 0.26819,-0.0401 0.38571,-0.1053 0.11751,-0.0652 0.21781,-0.16508 0.27164,-0.28822 0.0682,-0.15591 0.0579,-0.33409 0.0348,-0.50267 -0.0231,-0.16859 -0.058,-0.3389 -0.0348,-0.50748 0.0202,-0.1474 0.0852,-0.28748 0.17959,-0.40246 0.0944,-0.11497 0.21768,-0.20511 0.35326,-0.26638 0.27115,-0.12255 0.5844,-0.12801 0.87507,-0.0643 0.58134,0.12735 1.0713,0.50886 1.62253,0.73318 0.95345,0.388 2.04113,0.28432 3.03046,0 1.02399,-0.29428 1.99188,-0.77243 3.03046,-1.01016 0.99305,-0.22731 2.03741,-0.22731 3.03046,0 0.87016,-0.6442 1.9478,-1.00341 3.03045,-1.01015 0.68006,-0.004 1.3529,0.12604 2.02977,0.19199 0.67686,0.066 1.3807,0.0638 2.01084,-0.19199 0.35048,-0.14226 0.66529,-0.35782 0.9874,-0.55613 0.3221,-0.19832 0.6613,-0.3834 1.03291,-0.45402 0.33196,-0.0631 0.67372,-0.0318 1.01014,-2.7e-4 0.33642,0.0316 0.67813,0.063 1.01016,2.7e-4 0.37169,-0.0702 0.71121,-0.25476 1.03343,-0.45289 0.32223,-0.19814 0.63685,-0.41384 0.98688,-0.55726 0.63914,-0.26189 1.38117,-0.26189 2.02031,0 0.59795,-1.11366 1.77247,-1.89668 3.03045,-2.02031 0.67052,-0.0659 1.34656,0 2.02031,0 l 1.01015,0 2.02031,0 c -0.089,-0.15238 -0.13666,-0.32862 -0.13666,-0.50507 0,-0.17646 0.0477,-0.3527 0.13666,-0.50508 0.11472,-0.19646 0.29604,-0.35032 0.50185,-0.44726 0.20582,-0.0969 0.43522,-0.13866 0.66272,-0.1379 0.455,0.002 0.89233,0.16771 1.30876,0.35107 0.41642,0.18336 0.82964,0.38817 1.27629,0.47497 0.22332,0.0434 0.45402,0.0564 0.67871,0.0208 0.22469,-0.0356 0.44342,-0.12124 0.62243,-0.26164 0.18905,-0.14828 0.3268,-0.35033 0.47427,-0.54002 0.14746,-0.18969 0.31502,-0.37553 0.53588,-0.47013 0.15719,-0.0673 0.33223,-0.0838 0.50297,-0.0744 0.17074,0.009 0.33897,0.0437 0.50718,0.0744 1.11943,0.20457 2.2872,0.25246 3.38484,-0.0478 1.09764,-0.30026 2.12156,-0.97879 2.67608,-1.97251 0.12234,-0.21923 0.22231,-0.45315 0.37753,-0.65047 0.0776,-0.0987 0.16911,-0.18759 0.27632,-0.25289 0.1072,-0.0653 0.23078,-0.10625 0.3563,-0.10679 0.17783,-7.6e-4 0.34527,0.0776 0.51887,0.11613 0.0868,0.0193 0.17716,0.0286 0.26466,0.0129 0.0875,-0.0158 0.17231,-0.0586 0.22662,-0.12898 0.0531,-0.0689 0.0734,-0.15876 0.0717,-0.24573 -0.002,-0.087 -0.0235,-0.1722 -0.0473,-0.25587 -0.0238,-0.0837 -0.0497,-0.1673 -0.0598,-0.2537 -0.0101,-0.0864 -0.003,-0.177 0.0354,-0.25485 0.0421,-0.0845 0.12013,-0.14826 0.20815,-0.1823 0.088,-0.034 0.18534,-0.0398 0.27879,-0.0266 0.1869,0.0263 0.35459,0.12414 0.52322,0.20891 0.82625,0.41537 1.79246,0.54583 2.69929,0.36446 0.90682,-0.18137 1.74853,-0.67341 2.35147,-1.37462"
       id="path3787"
       inkscape:path-effect="#path-effect3789"
       inkscape:original-d="m 166.67517,476.57523 c 1.3951,2.10554 4.25246,0.55804 6.06092,1.01015 0.73044,0.18262 1.34687,0.67344 2.0203,1.01016 0.67344,0.33671 1.34687,0.67343 2.02031,1.01015 0.67343,0.33672 1.28986,0.82754 2.0203,1.01015 1.30666,0.32667 2.73395,-0.32666 4.04061,0 0.19817,0.0495 3.87411,1.98701 4.04061,2.02031 7.70609,0 -0.79686,-0.45176 5.05076,1.01015 1.30666,0.32666 2.73396,-0.32666 4.04061,0 6.59488,1.64872 -3.81653,0.54242 5.05077,2.0203 0.9964,0.16607 2.0203,0 3.03045,0 0.67344,0 1.36698,-0.16333 2.02031,0 0.73044,0.18262 1.282,0.8625 2.0203,1.01016 0.99054,0.1981 2.02031,0 3.03046,0 0.67344,0 1.36698,-0.16333 2.02031,0 0.73044,0.18261 1.28986,0.82754 2.0203,1.01015 0.65333,0.16333 1.34687,0 2.02031,0 0.67343,0 1.34687,0 2.0203,0 1.01015,0 2.03405,-0.16607 3.03046,0 1.05031,0.17505 1.98015,0.8351 3.03046,1.01015 0.99641,0.16607 2.0203,0 3.03046,0 0.67343,0 1.34687,0 2.0203,0 3.03046,0 6.06092,0 9.09137,0 1.01016,0 2.03992,-0.1981 3.03046,0 0.7383,0.14766 1.28986,0.82754 2.02031,1.01015 0.65332,0.16334 1.34687,0 2.0203,0 1.68359,0 3.36718,0 5.05076,0 1.01016,0 2.03993,-0.1981 3.03046,0 0.7383,0.14767 1.28986,0.82755 2.02031,1.01016 0.65332,0.16333 1.34687,0 2.0203,0 1.01015,0 2.02031,0 3.03046,0 1.68359,0 3.36717,0 5.05076,0 0.67344,0 1.38143,-0.21296 2.02031,0 0.45175,0.15058 0.5584,0.85957 1.01015,1.01015 0.63888,0.21296 1.34687,0 2.0203,0 1.34687,0 2.69374,0 4.04061,0 5.7242,0 11.4484,0 17.1726,0 3.03046,0 6.06091,0 9.09137,0 1.01015,0 2.02031,0 3.03046,0 1.01015,0 2.07214,0.31944 3.03046,0 0.31943,-0.10648 -0.31944,-0.90367 0,-1.01015 0.95831,-0.31944 2.0203,0 3.03045,0 1.01016,0 2.03405,0.16607 3.03046,0 1.05031,-0.17505 1.98015,-0.8351 3.03046,-1.01016 0.99641,-0.16606 2.0203,0 3.03046,0 1.01015,-0.33671 1.98634,-0.80132 3.03045,-1.01015 0.15202,-0.0304 3.91808,0.0306 4.04061,0 0.73045,-0.18261 1.28987,-0.82754 2.02031,-1.01015 0.65333,-0.16333 1.36698,0.16333 2.0203,0 0.73045,-0.18261 1.28987,-0.82754 2.02031,-1.01015 0.65333,-0.16333 1.36698,0.16333 2.02031,0 1.82831,0.60884 1.8787,-1.63639 3.03045,-2.02031 0.63888,-0.21296 1.34687,0 2.02031,0 0.33672,0 0.67343,0 1.01015,0 0.67344,0 1.34687,0 2.02031,0 0,-0.33672 -0.31944,-0.90367 0,-1.01015 5.21775,-1.73925 1.01885,1.34397 5.05076,0 0.45175,-0.15059 0.58423,-0.79719 1.01015,-1.01015 0.30117,-0.15059 0.67997,0.066 1.01015,0 2.11168,-0.42234 4.24111,-0.8071 6.06092,-2.02031 0.39621,-0.26414 0.58423,-0.79719 1.01015,-1.01015 0.30117,-0.15059 0.77206,0.23809 1.01015,0 0.2381,-0.2381 -0.23809,-0.77206 0,-1.01015 0.2381,-0.2381 0.67998,0.066 1.01016,0 5.45909,-1.09182 2.38748,-1.01016 5.05076,-1.01016"
       inkscape:connector-curvature="0" />
    <text
       xml:space="preserve"
       style="font-size:20px;font-style:normal;font-weight:normal;line-height:125%;letter-spacing:0px;word-spacing:0px;fill:#000000;fill-opacity:1;stroke:none;font-family:Sans"
       x="500.02551"
       y="347.2757"
       id="text3791"
       sodipodi:linespacing="125%"><tspan
         sodipodi:role="line"
         id="tspan3793"
         x="500.02551"
         y="347.2757">maxVal</tspan></text>
    <text
       xml:space="preserve"
       style="font-size:20px;font-style:normal;font-weight:normal;line-height:125%;letter-spacing:0px;word-spacing:0px;fill:#000000;fill-opacity:1;stroke:none;font-family:Sans"
       x="509.11688"
       y="508.90012"
       id="text3795"
       sodipodi:linespacing="125%"><tspan
         sodipodi:role="line"
         id="tspan3797"
         x="509.11688"
         y="508.90012">minVal</tspan></text>
    <text
       xml:space="preserve"
       style="font-size:20px;font-style:normal;font-weight:normal;line-height:125%;letter-spacing:0px;word-spacing:0px;fill:#000000;fill-opacity:1;stroke:none;font-family:Sans"
       x="150.51273"
       y="475.56506"
       id="text3799"
       sodipodi:linespacing="125%"><tspan
         sodipodi:role="line"
         id="tspan3801"
         x="150.51273"
         y="475.56506">B</tspan></text>
    <text
       xml:space="preserve"
       style="font-size:20px;font-style:normal;font-weight:normal;line-height:125%;letter-spacing:0px;word-spacing:0px;fill:#000000;fill-opacity:1;stroke:none;font-family:Sans"
       x="132.32997"
       y="322.02188"
       id="text3803"
       sodipodi:linespacing="125%"><tspan
         sodipodi:role="line"
         id="tspan3805"
         x="132.32997"
         y="322.02188">A</tspan></text>
    <text
       xml:space="preserve"
       style="font-size:20px;font-style:normal;font-weight:normal;line-height:125%;letter-spacing:0px;word-spacing:0px;fill:#000000;fill-opacity:1;stroke:none;font-family:Sans"
       x="265.6701"
       y="436.16913"
       id="text3807"
       sodipodi:linespacing="125%"><tspan
         sodipodi:role="line"
         id="tspan3809"
         x="265.6701"
         y="436.16913">C</tspan></text>
  </g>
</svg>
